# xmcd CD database file
#
# Track frame offsets:
#	150
#	22987
#	47912
#	60837
#	74525
#	92172
#	116665
#	137042
#
# Disc length: 2068 seconds
#
# Revision: 0
# Processed by: cddbd v1.5.1PL0 Copyright (c) Steve Scherf et al.
# Submitted via: Feurio! 1.68 - http://www.feurio.com
#
DISCID=6a081208
DTITLE=orpheus2 - orpheus2 and the Dionyc Band [CD 2)
DYEAR=1900
DGENRE=
TTITLE0=Sleep away
TTITLE1=Let the music talk
TTITLE2=See me
TTITLE3=Give me this night
TTITLE4=Wedding blues
TTITLE5=Leave me this way
TTITLE6=Long distance call
TTITLE7=Orpheus
EXTD=
EXTT0=
EXTT1=
EXTT2=
EXTT3=
EXTT4=
EXTT5=
EXTT6=
EXTT7=
PLAYORDER=
